<?xml version="1.0" encoding="utf-8"?>
<!-- Generator: Adobe Illustrator 22.0.1, SVG Export Plug-In . SVG Version: 6.00 Build 0)  -->
<svg version="1.1" id="Layer_1" xmlns="http://www.w3.org/2000/svg" xmlns:xlink="http://www.w3.org/1999/xlink" x="0px" y="0px"
	 viewBox="0 0 16 12" style="enable-background:new 0 0 16 12;" xml:space="preserve">
<style type="text/css">
	.st0{fill:none;}
	.st1{fill:#001921;}
</style>
<title>arrow</title>
<desc>Created with Sketch.</desc>
<g id="Page-1">
	<g id="_x30_1.6-copy-7" transform="translate(-623.000000, -728.000000)">
		<g id="arrow" transform="translate(619.000000, 722.000000)">
			<rect id="Rectangle" x="0" y="0" class="st0" width="24" height="24"/>
			<path id="Shape" class="st1" d="M4,12.2l5.7,5.3c0.2,0.1,0.3,0.2,0.5,0.1c0.1-0.1,0.3-0.2,0.3-0.4c0.1-0.2,0-0.4-0.1-0.5
				l-4.8-4.4h13.9c0.3,0,0.5-0.2,0.5-0.5s-0.2-0.5-0.5-0.5H5.7l4.8-4.4c0.1-0.2,0.1-0.3,0.1-0.5c0-0.2-0.1-0.3-0.3-0.4
				C10.2,6,10,6,9.9,6.1l-5.7,5.3c-0.1,0-0.2,0.2-0.2,0.3C4,11.9,4.1,12,4,12.2z"/>
		</g>
	</g>
</g>
</svg>
