<?xml version="1.0" encoding="utf-8"?>
<!-- Generator: Adobe Illustrator 22.0.1, SVG Export Plug-In . SVG Version: 6.00 Build 0)  -->
<svg version="1.1" id="Layer_1" xmlns="http://www.w3.org/2000/svg" xmlns:xlink="http://www.w3.org/1999/xlink" x="0px" y="0px"
	 viewBox="0 0 18 21" style="enable-background:new 0 0 18 21;" xml:space="preserve">
<style type="text/css">
	.st0{fill:none;}
	.st1{fill:#001921;}
</style>
<title>ic-add-alert-24px</title>
<desc>Created with Sketch.</desc>
<g id="Symbols">
	<g id="nav_x2F_top_x2F_alert" transform="translate(-3.000000, -22.000000)">
		<g id="ic-add-alert-24px" transform="translate(0.000000, 20.000000)">
			<polygon id="Shape" class="st0" points="0,0 24,0 24,24 0,24 			"/>
			<path id="Shape_1_" class="st1" d="M10,21c0,1.1,0.9,2,2,2s2-0.9,2-2H10z M18.9,16.8V11c0-3.2-2.2-6-5.3-6.7V3.6
				C13.6,2.7,12.9,2,12,2s-1.6,0.7-1.6,1.6v0.7C7.4,5,5.1,7.8,5.1,11v5.8L3,18.9V20h18v-1.1L18.9,16.8z M16,13h-3v3h-2v-3H8v-2h3V8
				h2v3h3V13z"/>
		</g>
	</g>
</g>
</svg>
