<?xml version="1.0" encoding="utf-8"?>
<!-- Generator: Adobe Illustrator 22.0.1, SVG Export Plug-In . SVG Version: 6.00 Build 0)  -->
<svg version="1.1" id="Layer_1" xmlns="http://www.w3.org/2000/svg" xmlns:xlink="http://www.w3.org/1999/xlink" x="0px" y="0px"
	 viewBox="0 0 18 18" style="enable-background:new 0 0 18 18;" xml:space="preserve">
<style type="text/css">
	.st0{fill:none;}
	.st1{fill:#001921;}
</style>
<title>ic-exit-to-app-24px</title>
<desc>Created with Sketch.</desc>
<g id="Symbols">
	<g id="nav_x2F_top_x2F_bar-copy" transform="translate(-1395.000000, -23.000000)">
		<g id="ic-exit-to-app-24px" transform="translate(1392.000000, 20.000000)">
			<polygon id="Shape" class="st0" points="0,0 24,0 24,24 0,24 			"/>
			<path id="Shape_1_" class="st1" d="M10.1,15.6l1.4,1.4l5-5l-5-5l-1.4,1.4l2.6,2.6H3v2h9.7L10.1,15.6z M19,3H5C3.9,3,3,3.9,3,5v4
				h2V5h14v14H5v-4H3v4c0,1.1,0.9,2,2,2h14c1.1,0,2-0.9,2-2V5C21,3.9,20.1,3,19,3z"/>
		</g>
	</g>
</g>
</svg>
