<?xml version="1.0" encoding="utf-8"?>
<!-- Generator: Adobe Illustrator 22.0.1, SVG Export Plug-In . SVG Version: 6.00 Build 0)  -->
<svg version="1.1" id="Layer_1" xmlns="http://www.w3.org/2000/svg" xmlns:xlink="http://www.w3.org/1999/xlink" x="0px" y="0px"
	 viewBox="0 0 18 20" style="enable-background:new 0 0 18 20;" xml:space="preserve">
<style type="text/css">
	.st0{fill:#001921;}
	.st1{fill:none;}
</style>
<title>ic-perm-contact-calendar-24px</title>
<desc>Created with Sketch.</desc>
<g id="Symbols">
	<g id="ic_x2F_black_x2F_profile" transform="translate(-3.000000, -1.000000)">
		<g id="ic-perm-contact-calendar-24px">
			<path id="Shape" class="st0" d="M19,3h-1V1h-2v2H8V1H6v2H5C3.9,3,3,3.9,3,5v14c0,1.1,0.9,2,2,2h14c1.1,0,2-0.9,2-2V5
				C21,3.9,20.1,3,19,3z M12,6c1.7,0,3,1.3,3,3s-1.3,3-3,3s-3-1.3-3-3S10.3,6,12,6z M18,18H6v-1c0-2,4-3.1,6-3.1s6,1.1,6,3.1V18z"/>
			<polygon id="Shape_1_" class="st1" points="0,0 24,0 24,24 0,24 			"/>
		</g>
	</g>
</g>
</svg>
