<?xml version="1.0" encoding="UTF-8"?>
<svg width="34px" height="34px" viewBox="0 0 34 34" version="1.1" xmlns="http://www.w3.org/2000/svg" xmlns:xlink="http://www.w3.org/1999/xlink">
    <!-- Generator: Sketch 52.5 (67469) - http://www.bohemiancoding.com/sketch -->
    <title>Group</title>
    <desc>Created with Sketch.</desc>
    <defs>
        <path d="M15.8576691,31.1539928 L13.5724884,32.7441009 C13.1191538,33.0595468 12.495934,32.947766 12.180488,32.4944314 C12.1483595,32.4482587 12.1201841,32.3994575 12.0962617,32.3485471 L10.9122912,29.8288828 C10.5565483,29.0718092 9.76723239,28.6160975 8.93371599,28.6865518 L6.15963747,28.9210355 C5.60931518,28.9675524 5.1254814,28.5591375 5.07896448,28.0088152 C5.07422668,27.9527643 5.07422668,27.8964135 5.07896448,27.8403625 L5.31344815,25.066284 C5.38390253,24.2327676 4.92819078,23.4434517 4.17111721,23.0877088 L1.6514529,21.9037383 C1.15160136,21.668862 0.936796489,21.0732474 1.1716728,20.5733959 C1.19559522,20.5224854 1.2237706,20.4736842 1.25589913,20.4275116 L2.84600721,18.1423309 C3.32378069,17.4557118 3.32378069,16.5442882 2.84600721,15.8576691 L1.25589913,13.5724884 C0.940453155,13.1191538 1.05223399,12.495934 1.50556861,12.180488 C1.55174125,12.1483595 1.60054245,12.1201841 1.6514529,12.0962617 L4.17111721,10.9122912 C4.92819078,10.5565483 5.38390253,9.76723239 5.31344815,8.93371599 L5.07896448,6.15963747 C5.03244756,5.60931518 5.44086251,5.1254814 5.99118479,5.07896448 C6.04723575,5.07422668 6.10358651,5.07422668 6.15963747,5.07896448 L8.93371599,5.31344815 C9.76723239,5.38390253 10.5565483,4.92819078 10.9122912,4.17111721 L12.0962617,1.6514529 C12.331138,1.15160136 12.9267526,0.936796489 13.4266041,1.1716728 C13.4775146,1.19559522 13.5263158,1.2237706 13.5724884,1.25589913 L15.8576691,2.84600721 C16.5442882,3.32378069 17.4557118,3.32378069 18.1423309,2.84600721 L20.4275116,1.25589913 C20.8808462,0.940453155 21.504066,1.05223399 21.819512,1.50556861 C21.8516405,1.55174125 21.8798159,1.60054245 21.9037383,1.6514529 L23.0877088,4.17111721 C23.4434517,4.92819078 24.2327676,5.38390253 25.066284,5.31344815 L27.8403625,5.07896448 C28.3906848,5.03244756 28.8745186,5.44086251 28.9210355,5.99118479 C28.9257733,6.04723575 28.9257733,6.10358651 28.9210355,6.15963747 L28.6865518,8.93371599 C28.6160975,9.76723239 29.0718092,10.5565483 29.8288828,10.9122912 L32.3485471,12.0962617 C32.8483986,12.331138 33.0632035,12.9267526 32.8283272,13.4266041 C32.8044048,13.4775146 32.7762294,13.5263158 32.7441009,13.5724884 L31.1539928,15.8576691 C30.6762193,16.5442882 30.6762193,17.4557118 31.1539928,18.1423309 L32.7441009,20.4275116 C33.0595468,20.8808462 32.947766,21.504066 32.4944314,21.819512 C32.4482587,21.8516405 32.3994575,21.8798159 32.3485471,21.9037383 L29.8288828,23.0877088 C29.0718092,23.4434517 28.6160975,24.2327676 28.6865518,25.066284 L28.9210355,27.8403625 C28.9675524,28.3906848 28.5591375,28.8745186 28.0088152,28.9210355 C27.9527643,28.9257733 27.8964135,28.9257733 27.8403625,28.9210355 L25.066284,28.6865518 C24.2327676,28.6160975 23.4434517,29.0718092 23.0877088,29.8288828 L21.9037383,32.3485471 C21.668862,32.8483986 21.0732474,33.0632035 20.5733959,32.8283272 C20.5224854,32.8044048 20.4736842,32.7762294 20.4275116,32.7441009 L18.1423309,31.1539928 C17.4557118,30.6762193 16.5442882,30.6762193 15.8576691,31.1539928 Z" id="path-1"></path>
    </defs>
    <g id="Symbols" stroke="none" stroke-width="1" fill="none" fill-rule="evenodd">
        <g id="capability-level---grey">
            <g id="Group">
                <g id="Rectangle-Copy">
                    <mask id="mask-2" fill="white">
                        <use xlink:href="#path-1"></use>
                    </mask>
                    <use id="Mask" stroke="#D8DCDD" fill-opacity="0.8" fill="#FFFFFF" fill-rule="nonzero" stroke-linecap="round" stroke-linejoin="round" stroke-dasharray="0,2" xlink:href="#path-1"></use>
                </g>
                <text id="B" font-family="MiriamLibre-Bold, Miriam Libre" font-size="16" font-weight="bold" letter-spacing="1.142857" fill="#7F8C90">
                    <tspan x="12.465143" y="22.5">B</tspan>
                </text>
            </g>
        </g>
    </g>
</svg>