<svg id="Layer_1" data-name="Layer 1" xmlns="http://www.w3.org/2000/svg" viewBox="0 0 48 48"><defs><style>.cls-1{fill:none;stroke:#041920;stroke-linejoin:round;stroke-width:2px;}</style></defs><title>icn_users-alt-01</title><path class="cls-1" d="M35,41V28c0-3.51-7.18-6-11-6s-11,2.49-11,6V41"/><path class="cls-1" d="M24,19a4.86,4.86,0,0,0,5-5V12a4.86,4.86,0,0,0-5-5,4.86,4.86,0,0,0-5,5v2A4.86,4.86,0,0,0,24,19Z"/><path class="cls-1" d="M36,24h1c3.47,0,10,2.7,10,6V40"/><path class="cls-1" d="M38,21a4.86,4.86,0,0,0,5-5V14a5,5,0,0,0-10,0v2A4.86,4.86,0,0,0,38,21Z"/><path class="cls-1" d="M1,40V30c0-3.3,6.53-6,10-6h1"/><path class="cls-1" d="M10,21a4.86,4.86,0,0,1-5-5V14a4.86,4.86,0,0,1,5-5,4.86,4.86,0,0,1,5,5v2A4.86,4.86,0,0,1,10,21Z"/></svg>