<svg id="Layer_1" data-name="Layer 1" xmlns="http://www.w3.org/2000/svg" viewBox="0 0 48 48"><defs><style>.cls-1{fill:none;stroke:#041920;stroke-miterlimit:10;stroke-width:2px;}</style></defs><title>icn_notification-01</title><path class="cls-1" d="M21,6.5a3,3,0,0,1,6,0"/><path class="cls-1" d="M29,40.5c0,2.21-2.25,4-5,4s-5-1.79-5-4"/><path class="cls-1" d="M24,8.5c6.73,0,11.12,5.84,11.65,12.51s3.51,8,4.76,9.49c1,1.87.41,4.51.41,5.7-4.1,2.29-9.47,3.34-16.82,3.34s-12.72-1-16.82-3.34c0-1.19-.6-3.83.41-5.7C8.84,29,11.82,27.67,12.35,21S17.27,8.5,24,8.5Z"/></svg>