<svg id="Layer_1" data-name="Layer 1" xmlns="http://www.w3.org/2000/svg" viewBox="0 0 48 48"><defs><style>.cls-1{fill:none;stroke:#041920;stroke-miterlimit:10;stroke-width:2px;}</style></defs><title>icn_company</title><path class="cls-1" d="M45,24V39a3,3,0,0,1-3,3H6a3,3,0,0,1-3-3V24"/><rect class="cls-1" x="13" y="26" width="5" height="5"/><rect class="cls-1" x="30" y="26" width="5" height="5"/><path class="cls-1" d="M30,11V8a2,2,0,0,0-2-2H19a2,2,0,0,0-2,2v3"/><line class="cls-1" x1="30" y1="27" x2="18" y2="27"/><path class="cls-1" d="M13,27H11c-3.34,0-9-1.81-9-5V13a2,2,0,0,1,2-2H44a2,2,0,0,1,2,2v9c0,3.19-5.66,5-9,5H35"/></svg>