<?xml version="1.0" encoding="utf-8"?>
<!-- Generator: Adobe Illustrator 22.0.1, SVG Export Plug-In . SVG Version: 6.00 Build 0)  -->
<svg version="1.1" id="Pfade" xmlns="http://www.w3.org/2000/svg" xmlns:xlink="http://www.w3.org/1999/xlink" x="0px" y="0px"
	 viewBox="0 0 75 110" style="enable-background:new 0 0 75 110;" xml:space="preserve">
<style type="text/css">
	.st0{fill:#8DD7FA;}
	.st1{fill:#229CCD;}
</style>
<path class="st0" d="M49.5,1.4H25.6C18.6,1.4,13,7.1,13,14v21.4l8-4.6V14c0-2.6,2.1-4.6,4.6-4.6h23.9c2.6,0,4.6,2.1,4.6,4.6v26.7h8
	V14C62.1,7.1,56.5,1.4,49.5,1.4z"/>
<g>
	<polygon class="st1" points="37.5,24.5 37.5,24.5 37.5,33.7 37.5,33.7 66.1,50.2 66.1,83.3 62.1,85.6 62.1,57.2 54.1,52.6 
		54.1,90.2 51.3,91.8 51.3,50.9 38.9,43.8 38.9,108.2 74.1,87.9 74.1,45.6 	"/>
	<polygon class="st0" points="36.1,43.8 23.8,50.9 23.8,91.8 20.9,90.2 20.9,52.6 12.9,57.2 12.9,85.6 8.9,83.3 8.9,50.2 37.5,33.7 
		37.5,24.5 0.9,45.6 0.9,87.9 36.1,108.2 	"/>
</g>
</svg>
