<?xml version="1.0" encoding="utf-8"?>
<!-- Generator: Adobe Illustrator 22.0.1, SVG Export Plug-In . SVG Version: 6.00 Build 0)  -->
<svg version="1.1" id="Layer_1" xmlns="http://www.w3.org/2000/svg" xmlns:xlink="http://www.w3.org/1999/xlink" x="0px" y="0px"
	 viewBox="0 0 16 12" style="enable-background:new 0 0 16 12;" xml:space="preserve">
<style type="text/css">
	.st0{fill:none;}
	.st1{fill:#007EA7;}
</style>
<title>arrow</title>
<desc>Created with Sketch.</desc>
<g id="Page-1">
	<g id="_x30_1.6-copy-7" transform="translate(-623.000000, -728.000000)">
		<g id="arrow" transform="translate(619.000000, 722.000000)">
			<rect id="Rectangle" class="st0" width="24" height="24"/>
			<path id="Shape" class="st1" d="M20,11.7c0-0.1-0.1-0.3-0.2-0.3l-5.7-5.3C14,6,13.8,6,13.7,6c-0.2,0.1-0.3,0.2-0.3,0.4
				c0,0.2,0,0.3,0.1,0.5l4.8,4.4H4.5c-0.3,0-0.5,0.2-0.5,0.5s0.2,0.5,0.5,0.5h13.9l-4.8,4.4c-0.1,0.1-0.2,0.3-0.1,0.5
				c0,0.2,0.2,0.3,0.3,0.4c0.2,0.1,0.3,0,0.5-0.1l5.7-5.3C19.9,12,20,11.9,20,11.7z"/>
		</g>
	</g>
</g>
</svg>
