<?xml version="1.0" encoding="utf-8"?>
<!-- Generator: Adobe Illustrator 22.0.1, SVG Export Plug-In . SVG Version: 6.00 Build 0)  -->
<svg version="1.1" id="Pfade" xmlns="http://www.w3.org/2000/svg" xmlns:xlink="http://www.w3.org/1999/xlink" x="0px" y="0px"
	 viewBox="0 0 260.2 109.9" style="enable-background:new 0 0 260.2 109.9;" xml:space="preserve">
<style type="text/css">
	.st0{fill:#8DD7FA;}
	.st1{fill:#229CCD;}
	.st2{fill:#001921;}
</style>
<path class="st0" d="M49.5,1.4H25.6C18.6,1.4,13,7.1,13,14v21.4l8-4.6V14c0-2.6,2.1-4.6,4.6-4.6h23.9c2.6,0,4.6,2.1,4.6,4.6v26.7h8
	V14C62.2,7.1,56.5,1.4,49.5,1.4z"/>
<g>
	<polygon class="st1" points="37.6,24.5 37.6,24.5 37.6,33.7 37.6,33.7 66.2,50.2 66.2,83.2 62.2,85.6 62.2,57.2 54.2,52.5 
		54.2,90.2 51.3,91.8 51.3,50.9 39,43.8 39,108.2 74.2,87.9 74.2,45.6 	"/>
	<polygon class="st0" points="36.2,43.8 23.8,50.9 23.8,91.8 21,90.2 21,52.6 13,57.2 13,85.6 9,83.2 9,50.2 37.6,33.7 37.6,24.5 
		1,45.6 1,87.9 36.2,108.2 	"/>
</g>
<path class="st2" d="M184.9,65.5c-2.2-0.9-3.3-1.4-3.6-1.5c-2.3-0.9-4-1.9-5-2.8c-1.1-1-1.6-2.2-1.6-3.6s0.5-2.6,1.5-3.5
	c1.6-1.5,4.1-1.8,7.4-0.8c1.3,0.4,2.6,1.1,4,2c0.2,0.1,0.4,0.2,0.7,0.2c0.4,0,0.6-0.2,0.8-0.5l1.8-3.4c0.1-0.2,0.1-0.3,0-0.5
	s-0.1-0.3-0.3-0.4c-1.5-1.1-3.2-2-5-2.6s-3.7-0.9-5.6-0.9c-2.2,0-4.2,0.5-5.9,1.4s-3,2.2-4,3.8c-1,1.6-1.4,3.5-1.4,5.7
	c0,3,0.8,5.3,2.4,6.9c1.6,1.6,3.7,2.9,6,3.9l1.5,0.6c1.7,0.7,3,1.3,3.9,1.7c0.9,0.5,1.7,1.1,2.2,1.7c0.6,0.7,0.9,1.6,0.9,2.6
	c0,1.5-0.6,2.8-1.7,3.7c-1.1,0.9-2.7,1.4-4.6,1.4c-2.4,0-4.9-0.9-7.6-2.6c-0.2-0.1-0.4-0.2-0.7-0.2c-0.4,0-0.6,0.2-0.8,0.5l-1.9,3.4
	c-0.1,0.1-0.1,0.3,0,0.5s0.1,0.3,0.3,0.4c1.6,1.1,3.3,2,5.2,2.6c1.8,0.6,3.7,0.9,5.6,0.9c2.4,0,4.6-0.5,6.4-1.4
	c1.8-0.9,3.3-2.3,4.3-3.9c1-1.7,1.5-3.6,1.5-5.8c0-2.2-0.6-4.2-1.8-5.8C188.6,67.6,187,66.4,184.9,65.5z"/>
<path class="st2" d="M224,47.8h-18.2c-0.6,0-1.1,0.2-1.5,0.6s-0.6,0.9-0.6,1.5v33.7c0,0.6,0.2,1.1,0.6,1.5c0.4,0.4,0.9,0.6,1.5,0.6
	H224c0.3,0,0.5-0.1,0.6-0.2c0.2-0.2,0.2-0.4,0.2-0.6v-4c0-0.3-0.1-0.5-0.2-0.6c-0.2-0.2-0.4-0.2-0.6-0.2h-14.3V69h10.7
	c0.3,0,0.5-0.1,0.6-0.2s0.2-0.4,0.2-0.6V64c0-0.3-0.1-0.5-0.2-0.6s-0.4-0.2-0.6-0.2h-10.7v-9.6H224c0.3,0,0.5-0.1,0.6-0.2
	c0.2-0.2,0.2-0.4,0.2-0.6v-4c0-0.3-0.1-0.5-0.2-0.6C224.4,47.9,224.2,47.8,224,47.8z"/>
<path class="st2" d="M259.3,80L259.3,80l-2.4-2.5c-0.5-0.5-1-0.5-1.5,0c-1.8,1.9-4,2.9-6.8,2.9c-1.4,0-2.6-0.4-3.8-1.1
	c-1.2-0.7-2.1-1.7-2.8-3c-0.7-1.2-1-2.6-1-4V61c0-1.4,0.4-2.8,1-4c0.7-1.2,1.6-2.2,2.8-3c1.2-0.7,2.4-1.1,3.8-1.1c2.7,0,5,1,6.8,2.9
	c0.4,0.5,0.9,0.6,1.5,0l2.3-2.5c0.2-0.3,0.4-0.6,0.4-0.9s-0.1-0.5-0.3-0.7c-1.3-1.5-2.9-2.7-4.7-3.4c-1.9-0.8-3.9-1.2-6-1.2
	c-2.4,0-4.7,0.6-6.8,1.9c-2.1,1.2-3.7,2.9-5,5s-1.8,4.5-1.8,7v11.4c0,2.5,0.6,4.9,1.8,7c1.2,2.1,2.9,3.8,5,5s4.4,1.9,6.8,1.9
	c2.1,0,4.1-0.4,6-1.2c1.8-0.8,3.5-2,4.8-3.5c0.2-0.2,0.3-0.5,0.3-0.7C259.7,80.5,259.5,80.3,259.3,80z"/>
<g>
	<g>
		<path class="st2" d="M107.7,84.3c-2-1.2-3.5-2.8-4.7-4.8s-1.7-4.2-1.7-6.6V60.3c0-2.4,0.6-4.6,1.7-6.6c1.2-2,2.7-3.6,4.7-4.8
			c2-1.2,4.1-1.8,6.5-1.8c1.9,0,3.7,0.3,5.3,1c1.7,0.7,3.1,1.6,4.4,2.9c0.2,0.1,0.3,0.4,0.3,0.6c0,0.3-0.1,0.5-0.3,0.7
			c-0.8,0.9-1.2,1.4-1.5,1.6s-0.5,0.3-0.8,0.3s-0.6-0.1-0.8-0.4c-1.8-1.7-4-2.6-6.6-2.6c-1.5,0-3,0.4-4.3,1.2s-2.3,1.9-3.1,3.3
			s-1.1,2.9-1.1,4.5v12.6c0,1.6,0.4,3.1,1.1,4.5s1.8,2.5,3.1,3.3s2.7,1.2,4.3,1.2c2.6,0,4.8-0.9,6.6-2.6c0.3-0.3,0.5-0.4,0.8-0.4
			s0.5,0.1,0.8,0.3c0.2,0.2,0.7,0.8,1.5,1.6c0.2,0.2,0.3,0.4,0.3,0.7c0,0.3-0.1,0.5-0.3,0.6c-1.3,1.3-2.7,2.2-4.4,2.9
			c-1.7,0.7-3.4,1-5.3,1C111.9,86.1,109.7,85.5,107.7,84.3z"/>
		<path class="st2" d="M143.6,85.2c-0.1-0.1-0.2-0.3-0.2-0.5V67.4l-11.1-18c-0.1-0.2-0.2-0.4-0.2-0.5c0-0.3,0.1-0.5,0.3-0.7
			s0.4-0.2,0.7-0.2h2.9c0.3,0,0.6,0.2,0.8,0.5l8.7,14.4l8.7-14.4c0.2-0.3,0.5-0.5,0.8-0.5h2.9c0.3,0,0.5,0.1,0.7,0.2
			c0.2,0.2,0.3,0.4,0.3,0.7c0,0.1-0.1,0.3-0.2,0.5l-11,17.8v17.5c0,0.2-0.1,0.4-0.2,0.5c-0.1,0.1-0.3,0.2-0.5,0.2h-2.9
			C143.9,85.4,143.7,85.3,143.6,85.2z"/>
	</g>
</g>
</svg>
